HIERARCHY
ROOT SpineBase
{
  OFFSET 0.000000 0.000000 0.000000
  CHANNELS 6 Xposition Yposition Zposition Zrotation Xrotation Yrotation
  JOINT SpineMid
  {
    OFFSET 0.000000 30.923388 0.000000
    CHANNELS 3 Zrotation Xrotation Yrotation
    JOINT SpineShoulder
    {
      OFFSET -0.066955 23.433980 -0.958119
      CHANNELS 3 Zrotation Xrotation Yrotation
      JOINT Neck
      {
        OFFSET -0.085663 7.846333 -0.679847
        CHANNELS 3 Zrotation Xrotation Yrotation
        JOINT Head
        {
          OFFSET 4.633378 9.991899 3.700928
          CHANNELS 3 Zrotation Xrotation Yrotation
          End Site
          {
            OFFSET 0 0 0
          }
        }
      }
      JOINT ShoulderLeft
      {
        OFFSET -4.286682 1.072888 -10.189317
        CHANNELS 3 Zrotation Xrotation Yrotation
        JOINT ElbowLeft
        {
          OFFSET -8.562568 -29.285826 -14.172929
          CHANNELS 3 Zrotation Xrotation Yrotation
          JOINT WristLeft
          {
            OFFSET 3.170746 -24.407376 -4.592198
            CHANNELS 3 Zrotation Xrotation Yrotation
            JOINT HandLeft
            {
              OFFSET -1.630917 -6.517479 -1.010235
              CHANNELS 3 Zrotation Xrotation Yrotation
              JOINT HandTipLeft
              {
                OFFSET -0.193634 -4.580361 1.555797
                CHANNELS 3 Zrotation Xrotation Yrotation
                End Site
                {
                  OFFSET 0 0 0
                }
              }
              JOINT ThumbLeft
              {
                OFFSET 2.976470 -2.593243 0.611929
                CHANNELS 3 Zrotation Xrotation Yrotation
                End Site
                {
                  OFFSET 0 0 0
                }
              }
            }
          }
        }
      }
      JOINT ShoulderRight
      {
        OFFSET 10.574239 -9.078135 5.578562
        CHANNELS 3 Zrotation Xrotation Yrotation
        JOINT ElbowRight
        {
          OFFSET -3.715318 -33.064263 1.268763
          CHANNELS 3 Zrotation Xrotation Yrotation
          JOINT WristRight
          {
            OFFSET -15.160482 -19.139028 -21.112388
            CHANNELS 3 Zrotation Xrotation Yrotation
            JOINT HandRight
            {
              OFFSET 0.829884 -5.924807 2.798456
              CHANNELS 3 Zrotation Xrotation Yrotation
              JOINT HandTipRight
              {
                OFFSET -0.643227 -0.295393 -1.265804
                CHANNELS 3 Zrotation Xrotation Yrotation
                End Site
                {
                  OFFSET 0 0 0
                }
              }
              JOINT ThumbRight
              {
                OFFSET -0.819299 0.559536 -1.891231
                CHANNELS 3 Zrotation Xrotation Yrotation
                End Site
                {
                  OFFSET 0 0 0
                }
              }
            }
          }
        }
      }
    }
  }
  JOINT HipLeft
  {
    OFFSET -5.656725 3.862367 -6.625779
    CHANNELS 3 Zrotation Xrotation Yrotation
    JOINT KneeLeft
    {
      OFFSET -9.378870 -16.816469 -27.265933
      CHANNELS 3 Zrotation Xrotation Yrotation
      JOINT AnkleLeft
      {
        OFFSET -13.735453 -21.598187 6.479607
        CHANNELS 3 Zrotation Xrotation Yrotation
        JOINT FootLeft
        {
          OFFSET 6.756399 -3.868418 -11.530412
          CHANNELS 3 Zrotation Xrotation Yrotation
          End Site
          {
            OFFSET 0 0 0
          }
        }
      }
    }
  }
  JOINT HipRight
  {
    OFFSET 4.557323 -0.363125 -1.042222
    CHANNELS 3 Zrotation Xrotation Yrotation
    JOINT KneeRight
    {
      OFFSET -6.533434 -28.662885 -3.179883
      CHANNELS 3 Zrotation Xrotation Yrotation
      JOINT AnkleRight
      {
        OFFSET -16.682213 -19.443490 5.636568
        CHANNELS 3 Zrotation Xrotation Yrotation
        JOINT FootRight
        {
          OFFSET 8.108877 9.791132 -6.613371
          CHANNELS 3 Zrotation Xrotation Yrotation
          End Site
          {
            OFFSET 0 0 0
          }
        }
      }
    }
  }
}
MOTION
Frames: 5
Frame Time: 0.033333
59.235380 90.425830 398.900183 -0.000000 0.000000 -28.663426 -0.000000 0.000000 28.663426 -0.000000 0.000000 0.000000 -0.000000 0.000000 0.000000 0.000000 0.000000 0.000000 -0.000000 0.000000 0.000000 -0.000000 0.000000 0.000000 -0.000000 0.000000 0.000000 -0.000000 0.000000 0.000000 0.000000 0.000000 0.000000 0.000000 0.000000 0.000000 -0.000000 0.000000 0.000000 -0.000000 0.000000 0.000000 -0.000000 0.000000 0.000000 -0.000000 0.000000 0.000000 0.000000 0.000000 0.000000 0.000000 0.000000 0.000000 -0.000000 0.000000 28.663426 -0.000000 0.000000 0.000000 -0.000000 0.000000 0.000000 0.000000 0.000000 0.000000 -0.000000 0.000000 28.663426 -0.000000 0.000000 0.000000 -0.000000 0.000000 0.000000 0.000000 0.000000 0.000000
59.003620 90.319625 398.600412 -0.351812 0.427944 -26.431612 0.505530 -0.226599 26.433925 -0.000000 0.000000 0.000000 -0.000000 0.000000 0.000000 0.000000 0.000000 0.000000 0.593025 -0.911418 -0.015881 -0.593352 0.911205 0.025316 2.316507 -2.337565 0.275442 3.670338 1.257002 1.706685 0.000000 0.000000 0.000000 0.000000 0.000000 0.000000 -0.000000 0.000000 0.000000 -3.511972 3.870773 0.872951 -1.457243 13.693414 -0.129423 2.109593 -12.138207 0.576258 0.000000 0.000000 0.000000 0.000000 0.000000 0.000000 0.101578 0.502927 26.034973 1.324819 -1.278795 1.100947 -1.273154 0.470224 -0.671861 0.000000 0.000000 0.000000 0.505530 -0.226599 26.433925 1.600490 -2.738028 2.865783 2.160668 3.205312 -0.969084 0.000000 0.000000 0.000000
58.827183 90.225502 398.385761 -0.621629 0.724993 -24.688540 0.867643 -0.399029 24.695494 -0.000000 0.000000 0.000000 0.701817 -0.655820 0.048422 0.000000 0.000000 0.000000 0.977955 -1.666623 0.028523 -0.358048 1.125873 -0.202015 3.583943 -3.669550 0.719567 7.239362 2.403058 3.029818 0.000000 0.000000 0.000000 0.000000 0.000000 0.000000 -0.000000 0.000000 0.000000 -5.576407 6.080510 1.487019 -3.384478 23.313803 0.344141 4.066995 -20.202563 1.409830 0.000000 0.000000 0.000000 0.000000 0.000000 0.000000 0.130840 0.989957 23.984367 2.429529 -2.291724 1.979807 -2.293884 0.801011 -1.169175 0.000000 0.000000 0.000000 0.867643 -0.399029 24.695494 2.966032 -4.688121 5.055102 3.911647 5.542968 -1.917884 0.000000 0.000000 0.000000
58.706069 90.143461 398.256229 -0.810103 0.892102 -23.465389 1.098372 -0.495649 23.476447 -0.000000 0.000000 0.000000 0.985180 -0.887036 0.054426 0.000000 0.000000 0.000000 1.137284 -2.248690 0.131093 -0.268132 1.582367 -0.364974 4.729500 -4.922938 1.018315 10.502888 3.369724 4.004218 0.000000 0.000000 0.000000 0.000000 0.000000 0.000000 -0.000000 0.000000 0.000000 -6.462755 7.012849 1.771939 -5.991844 30.234197 1.039870 6.486297 -26.041441 2.707413 0.000000 0.000000 0.000000 0.000000 0.000000 0.000000 0.072017 1.468728 22.539795 3.299783 -3.054146 2.613403 -3.060994 0.982502 -1.495478 0.000000 0.000000 0.000000 1.937465 -0.449433 23.462446 3.219865 -5.588602 6.512642 5.312128 7.102783 -2.592234 0.000000 0.000000 0.000000
58.640279 90.073500 398.211817 -0.917758 0.930033 -22.781835 1.206327 -0.501975 22.794569 -0.000000 0.000000 0.000000 1.223331 -1.054038 0.047304 0.000000 0.000000 0.000000 1.053911 -2.642114 0.290913 0.022539 1.947801 -0.576044 5.386949 -5.754313 1.229682 13.338939 4.098406 4.703798 0.000000 0.000000 0.000000 0.000000 0.000000 0.000000 -0.000000 0.000000 0.000000 -6.283285 6.827453 1.711500 -9.663472 35.799312 1.970239 10.079460 -31.156587 4.842405 0.000000 0.000000 0.000000 0.000000 0.000000 0.000000 -0.090311 1.942820 21.719260 3.925781 -3.578843 2.984140 -3.573896 1.008078 -1.653637 0.000000 0.000000 0.000000 2.310545 -0.514052 22.791989 3.658226 -5.915906 7.180126 6.399336 7.972309 -2.836608 0.000000 0.000000 0.000000
